<svg width="100" height="100" viewBox="0 0 100 100" fill="none" xmlns="http://www.w3.org/2000/svg">
<g clip-path="url(#clip0_3_12937)">
<path d="M17.7083 8.06015e-06H82.2917C84.6178 -0.00224053 86.9215 0.466009 89.0709 1.37796C91.2204 2.28991 93.1734 3.62765 94.8182 5.31463C96.463 7.00162 97.7674 9.00472 98.6565 11.2093C99.5457 13.4139 100.002 15.7766 100 18.1624V81.8376C100.002 84.2234 99.5457 86.5861 98.6565 88.7907C97.7674 90.9953 96.463 92.9984 94.8182 94.6854C93.1734 96.3723 91.2204 97.7101 89.0709 98.622C86.9215 99.534 84.6178 100.002 82.2917 100H17.7083C15.3822 100.002 13.0785 99.534 10.9291 98.622C8.7796 97.7101 6.82658 96.3723 5.18177 94.6854C3.53696 92.9984 2.23266 90.9953 1.34351 88.7907C0.454359 86.5861 -0.00218452 84.2234 7.85865e-06 81.8376V18.1624C-0.00218452 15.7766 0.454359 13.4139 1.34351 11.2093C2.23266 9.00472 3.53696 7.00162 5.18177 5.31463C6.82658 3.62765 8.7796 2.28991 10.9291 1.37796C13.0785 0.466009 15.3822 -0.00224053 17.7083 8.06015e-06Z" fill="#F0F0F0"/>
<path d="M81.335 67.22C79.055 67.8 77.645 67.245 76.38 65.345C73.54 61.09 70.405 57.03 67.38 52.895C66.99 52.36 66.585 51.835 66.08 51.17C62.5 56 58.925 60.6 55.57 65.385C54.37 67.095 53.11 67.84 50.87 67.235L64.33 49.17L51.8 32.855C53.955 32.435 55.445 32.65 56.765 34.58C59.68 38.84 62.895 42.895 66.1 47.185C69.325 42.91 72.5 38.85 75.5 34.63C76.705 32.92 78 32.27 80.165 32.9C78.525 35.075 76.92 37.215 75.305 39.34C73.125 42.205 70.985 45.105 68.725 47.91C67.92 48.91 68.05 49.56 68.77 50.505C72.95 56 77.08 61.55 81.335 67.22ZM18.665 48.87C19.025 47.065 19.265 45.225 19.765 43.455C22.765 32.74 35.065 28.285 43.515 34.925C48.465 38.82 49.695 44.31 49.45 50.5H21.55C21.13 61.605 29.125 68.31 39.315 64.89C42.89 63.69 44.995 60.89 46.05 57.39C46.585 55.635 47.47 55.36 49.12 55.86C48.275 60.24 46.36 63.9 42.36 66.19C36.36 69.62 27.795 68.51 23.29 63.745C20.63 60.945 19.5 57.46 19 53.695C18.925 53.095 18.77 52.505 18.65 51.91C18.66 50.8967 18.665 49.8833 18.665 48.87V48.87ZM21.6 48.125H46.815C46.65 40.095 41.65 34.39 34.815 34.34C27.315 34.28 21.925 39.85 21.6 48.125V48.125Z" fill="black"/>
</g>
<defs>
<clipPath id="clip0_3_12937">
<rect width="100" height="100" fill="white"/>
</clipPath>
</defs>
</svg>
