<svg width="100" height="100" viewBox="0 0 100 100" fill="none" xmlns="http://www.w3.org/2000/svg">
<path d="M21.3672 62.9063L29.7109 9.43751C30 7.6172 32.4453 7.1797 33.3047 8.81251L42.2734 25.5938L21.3672 62.9063V62.9063ZM80.6953 75.8984L72.7344 26.6484C72.4922 25.1172 70.5781 24.4922 69.4766 25.5938L19.3047 75.8984L47.0703 91.4844C47.9295 91.9572 48.8943 92.2051 49.875 92.2051C50.8557 92.2051 51.8205 91.9572 52.6797 91.4844L80.6953 75.8984V75.8984ZM58.1563 32.9297L51.7266 20.7031C51.0078 19.3125 49.0391 19.3125 48.3203 20.7031L20.0781 71.0547L58.1563 32.9297V32.9297Z" fill="#F58220"/>
</svg>
