<svg width="100" height="100" viewBox="0 0 100 100" fill="none" xmlns="http://www.w3.org/2000/svg">
<path d="M97.4546 45.6078L54.3945 2.55001C51.9164 0.0703247 47.8945 0.0703247 45.4124 2.55001L36.4726 11.4922L47.8148 22.8344C50.4515 21.9445 53.4734 22.5414 55.5742 24.6422C56.5753 25.6443 57.2743 26.9078 57.5911 28.2884C57.9079 29.6691 57.8297 31.1109 57.3656 32.4492L68.2968 43.382C70.9413 42.4703 73.9937 43.0594 76.1046 45.175C79.0578 48.1258 79.0578 52.9094 76.1046 55.8617C75.4029 56.5639 74.5696 57.1208 73.6525 57.5008C72.7354 57.8808 71.7524 58.0764 70.7597 58.0764C69.767 58.0764 68.784 57.8808 67.8669 57.5008C66.9498 57.1208 66.1166 56.5639 65.4148 55.8617C64.3604 54.8067 63.6417 53.4633 63.349 52.0008C63.0564 50.5382 63.203 49.0217 63.7703 47.6422L53.5765 37.4477L53.5749 64.2766C54.3145 64.6408 54.9898 65.1232 55.5742 65.7047C58.5265 68.6555 58.5265 73.4375 55.5742 76.3945C52.6218 79.3453 47.8367 79.3453 44.8874 76.3945C41.9359 73.4383 41.6937 68.6563 44.6445 65.7047C45.3742 64.9758 46.0937 64.425 46.8749 64.0563V36.9789C46.0937 36.6102 45.3749 36.0633 44.6437 35.3297C42.4085 33.0953 41.9906 29.8141 43.1374 27.0672L32.0179 15.8852L2.5226 45.4086C0.0421327 47.8906 0.0577577 51.9125 2.53823 54.393L45.6054 97.4508C48.0843 99.9305 52.1093 99.9305 54.5921 97.4508L97.4515 54.593C99.932 52.1117 99.9343 48.0875 97.4546 45.6078V45.6078Z" fill="#F34F29"/>
</svg>
