<svg width="100" height="100" viewBox="0 0 100 100" fill="none" xmlns="http://www.w3.org/2000/svg">
<path d="M84.393 12.5H48.2852C48.2852 21.5 55.5695 28.7875 64.5719 28.7875H71.2125V35.2141C71.2125 44.2141 78.5 51.5016 87.5 51.5016V15.607C87.4994 14.7832 87.1718 13.9933 86.5893 13.4107C86.0067 12.8282 85.2168 12.5006 84.393 12.5V12.5Z" fill="#2684FF"/>
<path d="M66.5008 30.5H30.3922C30.3922 39.4992 37.6774 46.7867 46.6766 46.7867H53.3203V53.2133C53.3203 62.2133 60.6078 69.5008 69.6078 69.5008V33.6062C69.6066 32.7826 69.2788 31.993 68.6964 31.4106C68.114 30.8282 67.3245 30.5004 66.5008 30.4992V30.5Z" fill="url(#paint0_linear_3_12860)"/>
<path d="M48.6086 48.4984H12.5C12.5 57.5016 19.7844 64.7859 28.7875 64.7859H35.4281V71.2156C35.4281 80.2156 42.7156 87.5 51.7148 87.5V51.6086C51.714 50.7847 51.3866 49.9948 50.8043 49.412C50.2221 48.8291 49.4325 48.5009 48.6086 48.4992V48.4984Z" fill="url(#paint1_linear_3_12860)"/>
<defs>
<linearGradient id="paint0_linear_3_12860" x1="68.8563" y1="30.5406" x2="53.4938" y2="46.3812" gradientUnits="userSpaceOnUse">
<stop offset="0.176" stop-color="#0052CC"/>
<stop offset="1" stop-color="#2684FF"/>
</linearGradient>
<linearGradient id="paint1_linear_3_12860" x1="52.0031" y1="48.6375" x2="34.2406" y2="65.9188" gradientUnits="userSpaceOnUse">
<stop offset="0.176" stop-color="#0052CC"/>
<stop offset="1" stop-color="#2684FF"/>
</linearGradient>
</defs>
</svg>
