<svg width="100" height="100" viewBox="0 0 100 100" fill="none" xmlns="http://www.w3.org/2000/svg">
<path d="M88.0297 23.6984L53.543 3.69453C51.3703 2.45703 48.5242 2.45703 46.3344 3.69453L11.5781 23.6984C9.33672 24.9883 7.8125 27.4125 7.8125 30.0055V69.9602C7.8125 72.5531 9.36875 74.9781 11.6109 76.275L20.7742 81.5C25.1703 83.6656 26.3883 83.6656 28.3883 83.6656C34.8992 83.6656 38.2805 79.7289 38.2805 72.8625V33.4172C38.2813 32.8602 38.6289 32.0312 38.0812 32.0312H33.6891C33.1328 32.0312 32.0312 32.8602 32.0312 33.4164V72.8617C32.0312 75.9055 29.2063 78.9344 24.0609 76.3617L14.5906 70.8828C14.2609 70.7031 14.0625 70.3414 14.0625 69.9602V30.0055C14.0625 29.6289 14.4242 29.2508 14.7586 29.0578L49.4289 9.08828C49.5991 8.99785 49.7889 8.95057 49.9816 8.95057C50.1744 8.95057 50.3642 8.99785 50.5344 9.08828L84.8805 29.0531C85.2094 29.2508 85.157 29.6172 85.157 30.0055V69.9602C85.157 70.3414 85.2289 70.7125 84.9047 70.8961L50.4258 90.8773C50.1305 91.0547 49.7461 91.0547 49.4219 90.8773L40.5805 85.6047C40.3141 85.45 39.993 85.3945 39.7367 85.5375C37.2797 86.9305 36.8234 87.1156 34.5187 87.9148C33.9508 88.1125 33.1133 88.4555 34.8375 89.4219L46.3984 96.2609C47.5021 96.8986 48.7543 97.2343 50.0289 97.2344C51.3085 97.2364 52.566 96.9007 53.6742 96.2609L88.0305 76.275C90.2734 74.9687 91.407 72.5531 91.407 69.9602V30.0055C91.4062 27.4125 90.2727 24.9945 88.0297 23.6984V23.6984ZM60.7242 63.6289C51.5625 63.6289 49.5453 61.1016 48.8727 56.5461C48.793 56.0555 48.3773 55.4687 47.8773 55.4687H43.4008C42.8469 55.4687 42.4008 56.1406 42.4008 56.6922C42.4008 62.525 45.5727 69.5922 60.7242 69.5922C71.6914 69.5922 77.9805 65.3305 77.9805 57.7883C77.9805 50.3102 72.9281 48.3477 62.2914 46.9398C51.5398 45.5187 50.4477 44.8008 50.4477 42.282C50.4477 40.2055 51.3727 37.4359 59.3336 37.4359C66.4461 37.4359 69.068 38.9625 70.1469 43.757C70.2398 44.2078 70.6516 44.5312 71.1164 44.5312H75.6117C75.8883 44.5312 76.1516 44.4195 76.3453 44.2219C76.5336 44.0094 76.632 43.743 76.6078 43.457C75.9102 35.2 70.4258 31.3523 59.3328 31.3523C49.4641 31.3523 43.5781 35.5195 43.5781 42.5047C43.5781 50.0812 49.4352 52.175 58.9078 53.1117C70.2398 54.2227 71.1211 55.8789 71.1211 58.1078C71.1211 61.9797 68.0133 63.6289 60.7242 63.6289Z" fill="#83CD29"/>
</svg>
