<svg width="100" height="100" viewBox="0 0 100 100" fill="none" xmlns="http://www.w3.org/2000/svg">
<path fill-rule="evenodd" clip-rule="evenodd" d="M96.2953 59.9875C95.9438 57.7078 94.0289 56.2148 91.8016 56.1141C90.9953 56.0773 90.1766 56.1617 89.3727 56.2641C88.4016 56.3875 87.4422 56.6062 86.4734 56.7508C85.8039 56.8508 85.125 56.8969 84.4562 56.9656L84.4398 56.8789C85.6883 54.5211 86.9891 52.1891 88.1703 49.7977C89.0758 47.9633 89.8508 46.0625 90.6516 44.1773C91.9766 41.0539 93.0352 37.8336 93.9117 34.5609C94.7516 31.4273 95.4703 28.2594 95.6961 25.0086C95.7867 23.7102 95.8492 22.4063 95.8422 21.1063C95.8359 20.0695 95.7242 19.0313 95.6203 17.9977C95.5031 16.8133 95.1453 15.6906 94.65 14.6102C93.9969 13.1867 92.9844 12.0187 91.9187 10.9094C91.0656 10.0211 90.1273 9.21172 89.1969 8.40312C87.8703 7.24922 86.3789 6.32813 84.8297 5.51016C83.0747 4.5776 81.2154 3.85642 79.2906 3.36172C78.1242 3.06406 76.9312 2.84297 75.75 2.60703C75.325 2.52109 74.8992 2.34375 74.4742 2.34375H66.4734C66.1844 2.34375 65.8977 2.49297 65.6062 2.52578C63.6906 2.73906 61.7977 3.1 59.9594 3.66953C59.2719 3.88281 58.6437 3.74844 57.9906 3.68828C57.4898 3.64219 56.9977 3.50781 56.4969 3.48281C54.5891 3.3875 52.6789 3.24766 50.7719 3.26797C48.9445 3.28672 47.1359 3.5875 45.3672 4.08984C43.8867 4.51016 42.4383 5.02344 41.1117 5.80156C40.5438 6.13438 40.0938 6.07187 39.5063 5.90234C37.532 5.33281 35.5438 4.79766 33.5383 4.34844C32.2883 4.06875 31.0031 3.92969 29.7266 3.79609C28.5016 3.66879 27.2719 3.59216 26.0406 3.56641C24.8391 3.54063 23.6289 3.54141 22.4328 3.64766C20.5277 3.81328 18.6498 4.21021 16.8406 4.82969C14.8369 5.51385 12.9647 6.53502 11.3047 7.84922C9.61172 9.18906 8.25391 10.825 7.16172 12.693C6.01094 14.6641 5.22188 16.7742 4.73125 18.9906C4.46563 20.1914 4.29766 21.4258 4.11563 22.6453C4.05859 23.025 4.6875 23.4047 3.90625 23.7828V29.0906C4.6875 29.4438 4.06875 29.7961 4.11406 30.15C4.22266 31.0008 4.31875 31.8586 4.4625 32.7031C4.68984 34.0398 4.95937 35.3727 5.23437 36.7008C5.61622 38.5571 6.01885 40.409 6.44219 42.2563C6.75156 43.6 7.10391 44.9359 7.47266 46.2648C8.03594 48.2945 8.59062 50.3281 9.22734 52.3352C9.81875 54.2 10.4961 56.0383 11.168 57.8766C12.0984 60.4195 13.2125 62.8805 14.5484 65.2391C15.7039 67.2812 17.0242 69.1938 18.7953 70.7672C19.9625 71.8039 21.2617 72.6008 22.7742 72.9992C23.9625 73.3117 25.1703 73.3492 26.3867 73.1C27.7726 72.8181 29.0673 72.1979 30.1555 71.2945C30.2828 71.1898 30.4227 71.1102 30.5734 71.3023C31.1477 72.0297 31.9164 72.5148 32.7203 72.9344C34.8898 74.0656 37.2539 74.4047 39.6555 74.543C40.2367 74.5766 40.8242 74.493 41.4102 74.4766C42.5516 74.4453 43.6609 74.2227 44.7523 73.907C45.3242 73.7414 45.8828 73.5313 46.4648 73.3352C46.4953 73.9547 46.5344 74.5516 46.5523 75.1484L46.6336 78.4031C46.6484 78.8984 46.668 79.3953 46.7141 79.8883C46.832 81.1594 46.9477 82.4313 47.0992 83.6984C47.2047 84.5719 47.3141 85.4523 47.5195 86.3047C47.9314 88.0253 48.4957 89.7059 49.2055 91.3266C49.885 92.8996 50.9295 94.2882 52.2523 95.3773C53.9867 96.8117 56.0195 97.4234 58.2148 97.5367C59.1227 97.5844 60.0562 97.5398 60.95 97.3773C62.3705 97.1249 63.7756 96.7923 65.1586 96.3812C67.9641 95.5344 70.3891 94.0719 72.2008 91.7086C73.232 90.3617 74.0789 88.9047 74.6227 87.2961C75.0711 85.9672 75.4937 84.625 75.8297 83.2648C76.0953 82.193 76.2266 81.0875 76.3883 79.993C76.4953 79.2687 76.5594 78.5375 76.6266 77.8078C76.7359 76.6227 76.8477 75.4383 76.9266 74.2508C76.9813 73.4242 76.9789 72.5938 77.0117 71.7656C77.0219 71.5133 77.0625 71.2625 77.0859 71.0109C77.1078 70.7781 77.225 70.6977 77.4625 70.7016C78.2992 70.7141 79.1375 70.7359 79.9719 70.6984C80.907 70.6563 81.8508 70.6164 82.7711 70.4617C84.0825 70.2427 85.3833 69.9645 86.6695 69.6281C88.1875 69.2313 89.5797 68.5203 90.9195 67.7102C92.4805 66.7672 93.9031 65.6609 95.0578 64.2359C96.0617 62.993 96.5375 61.5562 96.2953 59.9875V59.9875ZM93.6297 60.7547C93.5781 61.4695 93.2508 62.082 92.7758 62.6055C90.5344 65.0766 87.7227 66.5758 84.5062 67.3141C83.2844 67.5938 82.0234 67.7391 80.7727 67.8547C79.704 67.9487 78.6305 67.974 77.5586 67.9305C76.7727 67.9008 75.993 67.7211 75.1898 67.6055C75.1094 68.3398 75.0328 69.1047 74.9398 69.868L74.5656 72.7938C74.4523 73.7211 74.3641 74.6516 74.2477 75.5781C74.1336 76.4773 73.9914 77.3734 73.8719 78.2727C73.7602 79.1102 73.6781 79.9516 73.5539 80.7875C73.3625 82.0687 73.1797 83.3531 72.9297 84.6242C72.6297 86.1438 72.1695 87.6156 71.4188 88.9859C70.5031 90.6586 69.2047 91.9328 67.5523 92.8766C65.8492 93.85 63.9875 94.3563 62.1 94.7797C60.7641 95.0797 59.3875 95.1289 58.0344 95.007C55.6875 94.7945 53.6844 93.7906 52.1703 91.9711C50.725 90.2344 49.7469 88.2438 49.3969 85.9906C49.2335 84.9181 49.1056 83.8404 49.0133 82.7594C48.9097 81.5581 48.8318 80.3547 48.7797 79.15C48.7104 77.6217 48.6591 76.0927 48.6258 74.5633C48.5844 72.6836 48.5711 70.8039 48.5445 68.9242L48.5398 68.8523C47.5836 69.4258 46.6438 70.0539 45.6469 70.5711C44.4819 71.1737 43.2066 71.5333 41.8984 71.6281C40.8688 71.7062 39.8258 71.7773 38.8008 71.6953C37.1203 71.5602 35.4414 71.2969 33.9367 70.4695C33.3266 70.1336 32.6898 69.725 32.2695 69.1883C31.2617 67.9023 31.7445 66.2773 33.2641 65.4953C34.3141 64.9539 35.4602 64.7281 36.5984 64.4648C37.5892 64.2401 38.5695 63.9718 39.5367 63.6609C40.4914 63.3484 41.0938 62.5742 41.6883 61.8148L42.6305 60.6031C42.2375 60.5617 41.8672 60.5195 41.4969 60.4852C40.3727 60.3789 39.3 60.0695 38.2742 59.6148C37.3961 59.2266 37.3828 59.1844 36.7391 59.8828C35.6641 61.05 34.6188 62.2445 33.5656 63.4313C32.7906 64.3039 32.0203 65.182 31.2492 66.057C30.4852 66.9227 29.7695 67.8375 28.9469 68.643C27.725 69.8391 26.2523 70.5586 24.4953 70.4773C23.368 70.4258 22.3359 70.0305 21.4078 69.3844C19.4922 68.05 18.2016 66.1836 17.0266 64.2234C15.5211 61.7117 14.3656 59.0359 13.3766 56.2867C12.6922 54.3867 12.0047 52.4852 11.407 50.5578C10.7578 48.4633 10.1883 46.3422 9.62813 44.2219C9.20971 42.6199 8.82369 41.0097 8.47031 39.3922C8.05826 37.5552 7.67695 35.7115 7.32656 33.8617C7.09375 32.6125 6.95859 31.3453 6.77031 30.0875C6.51641 28.3922 6.46953 26.6812 6.56172 24.9789C6.64375 23.4453 6.86406 21.9156 7.08281 20.3922C7.38594 18.2844 8.08047 16.2953 9.07969 14.4172C9.69141 13.2664 10.4508 12.2203 11.3289 11.2484C12.7703 9.65312 14.5148 8.5 16.4555 7.63438C17.8117 7.02969 19.2445 6.66563 20.7047 6.38125C22.8719 5.95938 25.0586 5.97578 27.2461 6.02109C28.2023 6.04062 29.1547 6.21484 30.1102 6.30938C32.1672 6.51406 34.1836 6.94688 36.1742 7.48125C37.625 7.87031 39.0461 8.37422 40.4852 8.81172C40.6297 8.85547 40.8414 8.85156 40.9594 8.77422C42.9094 7.50156 45.0406 6.66172 47.307 6.18125C48.1672 5.99922 49.0547 5.91953 49.9344 5.86328C51.0039 5.79531 52.082 5.73281 53.1492 5.79453C54.432 5.86797 55.7086 6.05703 56.9836 6.23203C57.6023 6.31641 58.2062 6.53125 58.8266 6.58984C59.1234 6.61797 59.4383 6.40078 59.7523 6.32813C61.3531 5.95859 62.9469 5.54687 64.5617 5.25469C65.7641 5.0375 66.9922 4.93516 68.2148 4.86484C69.5781 4.78672 70.9516 4.72969 72.3141 4.79531C74.0393 4.88075 75.7534 5.1221 77.4352 5.51641C79.5266 6.00312 81.5328 6.71016 83.4398 7.69141C84.8648 8.42422 86.2195 9.27422 87.4391 10.3195C88.2383 11.0055 89.0563 11.6828 89.7781 12.4469C90.6688 13.3891 91.5773 14.332 92.1359 15.5391C92.5562 16.4492 92.8562 17.3914 92.9391 18.3883C93.0422 19.6273 93.1672 20.8711 93.1555 22.1117C93.1445 23.2984 92.9828 24.4844 92.868 25.668C92.607 28.3664 92.0203 31.0062 91.3078 33.6109C90.7118 35.7625 90.0371 37.8916 89.2852 39.9938C88.5984 41.932 87.8062 43.8352 87.0055 45.7305C86.416 47.1344 85.7755 48.5163 85.0852 49.8734C83.775 52.4406 82.4125 54.9813 80.8367 57.3992C80.5648 57.8172 80.307 58.2453 80.0414 58.6719C80.7289 59.1359 81.5078 59.2992 82.2922 59.3836C83.0383 59.4648 83.7992 59.5133 84.5445 59.4578C85.7375 59.3695 86.9266 59.1992 88.1125 59.0328C89.2875 58.8687 90.4391 58.5344 91.6453 58.6227C92.85 58.7102 93.7117 59.6258 93.6297 60.7547V60.7547ZM76.432 58.1352C75.9203 57.4742 75.3984 56.8211 74.8977 56.1523C74.1117 55.1023 73.5469 53.9297 72.9797 52.7516C72.4422 51.6352 71.7828 50.5781 71.2164 49.4742C70.2281 47.5484 69.2219 45.6289 68.3117 43.6656C67.1672 41.1992 66.2648 38.6453 65.9805 35.9133C65.8602 34.757 65.8297 33.6023 66.0633 32.457C66.4375 30.6281 67.393 29.1977 68.9992 28.2164C70.4891 27.3063 72.1492 27.0125 73.85 26.9203C74.9055 26.8633 75.9656 26.9102 77.0609 26.9102L77.0242 26.725C76.343 25.3008 75.7062 23.8523 74.9609 22.4617C73.9094 20.4992 72.5641 18.7297 71.0656 17.0891C69.9555 15.8742 68.7531 14.7469 67.4359 13.7508C66.1406 12.7703 64.7758 11.8945 63.3195 11.1781C61.5828 10.3242 59.7742 9.66406 57.8766 9.24297C56.0531 8.83828 54.218 8.59063 52.3477 8.57031C50.7523 8.55313 49.1672 8.625 47.6133 8.98516C45.268 9.52813 43.1227 10.4937 41.2562 12.0578C40.2236 12.9238 39.3009 13.9129 38.5086 15.0031C37.5742 16.2867 36.8203 17.6727 36.1758 19.1258C35.2914 21.1195 34.6844 23.1945 34.2695 25.3273C34.0617 26.3906 33.8992 27.4633 33.7336 28.5352C33.6758 28.9102 33.6711 29.2938 33.6375 29.7234C33.9258 29.5734 34.1336 29.4578 34.3461 29.3547L35.0375 29.0445C37.3758 27.975 39.7984 27.2867 42.4023 27.3656C43.5086 27.3992 44.5672 27.618 45.5508 28.1023C47.4375 29.0328 48.5414 30.6148 49.0211 32.6172C49.3523 33.9992 49.5789 35.4086 49.7992 36.8141C49.9719 37.9117 50.1484 39.0211 50.1688 40.1281C50.1977 41.7461 50.1156 43.3672 50.0273 44.9844C49.9515 46.3595 49.667 47.7151 49.1836 49.0047C48.3086 51.343 47.3336 53.643 46.4227 55.968C46.1219 56.7359 45.8906 57.5313 45.6062 58.3758C46.0453 58.3758 46.4016 58.3727 46.7578 58.3773C46.8969 58.3797 47.0391 58.3836 47.1734 58.4156C48.2203 58.6625 49.1281 59.1367 49.8727 59.9422C50.8656 61.0141 51.3867 62.2648 51.4133 63.7125C51.4281 64.5148 51.3437 65.3195 51.3477 66.1219C51.3641 69.8609 51.3922 73.6 51.4234 77.3383C51.4289 77.9492 51.4594 78.5609 51.5031 79.1711C51.5945 80.4484 51.6867 81.7266 51.8117 83.0008C51.8992 83.9047 52.0211 84.807 52.1641 85.7047C52.3664 86.9766 52.9453 88.1086 53.6023 89.1906C54.168 90.1211 54.9031 90.9117 55.8719 91.457C57.518 92.3836 59.2906 92.4609 61.0773 92.1195C62.2844 91.8891 63.4695 91.5187 64.6414 91.1367C65.7938 90.767 66.8461 90.1378 67.7172 89.2977C68.5383 88.5016 69.1211 87.5312 69.5141 86.4602C70.2766 84.3828 70.5141 82.1953 70.8297 80.025C70.9477 79.2125 71.05 78.3977 71.1578 77.5836C71.2805 76.657 71.4047 75.7312 71.5234 74.8055C71.6109 74.1156 71.6906 73.4242 71.775 72.7344C71.8953 71.7437 72.0227 70.7539 72.1375 69.7625C72.2258 68.9961 72.3008 68.2266 72.3789 67.4586C72.4797 66.4773 72.5883 65.4961 72.675 64.5133C72.7422 63.7672 72.7148 63.0078 72.8469 62.2758C73.0898 60.9336 73.7242 59.7914 74.9141 59.0531C75.4117 58.7445 75.9734 58.5414 76.5258 58.2805L76.432 58.1352V58.1352ZM31.4344 52.6258C30.841 51.2304 30.4835 49.7461 30.3766 48.2336C30.2766 46.8078 30.4461 45.3875 30.5922 43.968C30.7344 42.593 30.8523 41.2117 30.8937 39.8305C30.9625 37.5602 30.8094 35.293 30.7008 33.0242C30.6352 31.6734 30.7922 30.3062 30.9125 28.9523C31.0211 27.7328 31.1562 26.5102 31.3867 25.3086C31.7734 23.2922 32.2867 21.3047 33.0164 19.3781C33.7094 17.5516 34.5055 15.7727 35.6297 14.1711C36.4 13.0727 37.2742 12.0461 38.1141 10.9727L37.8648 10.8844C35.132 10.0164 32.3547 9.33828 29.4984 9.04219C28.1477 8.90234 26.7922 8.82031 25.4375 8.73984C25.0219 8.71484 24.6 8.77109 24.1828 8.81094C23.15 8.90937 22.1047 8.94844 21.0883 9.14219C19.3586 9.47109 17.6992 10.0242 16.1625 10.925C14.7828 11.7336 13.6242 12.7789 12.6539 14.0328C11.582 15.4172 10.8609 16.9828 10.343 18.6523C9.73125 20.6219 9.43984 22.6484 9.36094 24.6937C9.29219 26.4867 9.25781 28.2898 9.56719 30.0758C9.79766 31.4055 9.95156 32.7492 10.2055 34.0734C10.5516 35.8789 10.9227 37.6805 11.3516 39.4672C11.9648 42.025 12.5773 44.5867 13.3039 47.1133C13.9992 49.5344 14.7836 51.9336 15.6336 54.3039C16.3289 56.2383 17.1328 58.1367 17.9797 60.0102C18.5312 61.2305 19.1992 62.4047 19.8992 63.5477C20.6438 64.7609 21.4906 65.9125 22.6398 66.793C24.0898 67.9047 25.2125 68.0773 26.6859 66.8578C27.3172 66.3352 27.8508 65.6898 28.4 65.075C29.2727 64.0984 30.1148 63.0953 30.9836 62.1156C32.0898 60.8672 33.2102 59.632 34.3219 58.3898C34.557 58.1273 34.7828 57.857 35.0117 57.5914L34.6336 57.2594C33.2606 55.9507 32.1716 54.3734 31.4344 52.6258V52.6258ZM73.3781 15.4625C74.2871 16.5193 75.1496 17.6151 75.9633 18.7469C77.5258 20.9414 78.7742 23.3109 79.6938 25.8461C80.1008 26.9633 80.4258 28.0914 80.2805 29.3141C80.1797 30.1703 80.1883 31.0391 80.1125 31.9C80.0492 32.6164 79.9359 33.3289 79.843 34.043C79.7039 35.1195 79.5023 36.193 79.4422 37.2742C79.3852 38.3031 79.4445 39.343 79.5094 40.3742C79.575 41.4219 79.7164 42.4648 79.8125 43.5109C79.9211 44.6969 80.0672 45.8828 80.1008 47.0711C80.1281 48.0469 80.0414 49.0289 79.9563 50.0031C79.8547 51.1766 79.557 52.3125 79.1133 53.4023C78.8016 54.1695 78.4289 54.9133 78.0766 55.6813L78.218 55.8312L78.4328 55.9977L78.6492 55.6102C80.4767 52.7341 82.101 49.7338 83.5102 46.6312C84.4118 44.6285 85.268 42.6056 86.0781 40.5641C87.3469 37.3891 88.3508 34.125 89.1273 30.7961C89.4758 29.3016 89.7422 27.7844 89.9789 26.2672C90.1633 25.0813 90.3172 23.8812 90.3516 22.6844C90.3883 21.4148 90.318 20.1352 90.2008 18.8688C90.1133 17.9125 89.8773 16.95 89.2781 16.1727C88.3148 14.9211 87.275 13.7242 85.9961 12.7773C84.9195 11.9797 83.8469 11.1617 82.6914 10.4906C80.8594 9.42813 78.8766 8.72031 76.8047 8.23828C74.7828 7.76719 72.7344 7.56406 70.6727 7.52109C69.457 7.49531 68.2359 7.62578 67.0227 7.73984C65.9234 7.84297 64.8313 8.01875 63.7242 8.16406C64.9117 8.83203 66.0828 9.42578 67.1875 10.1258C69.5102 11.5969 71.5914 13.3672 73.3781 15.4625V15.4625ZM43.2023 56.6516C43.9531 54.2508 44.9758 51.9586 45.9664 49.6523C46.7695 47.782 47.2086 45.8117 47.3547 43.7883C47.4273 42.7906 47.407 41.7805 47.3578 40.7797C47.309 39.6663 47.2068 38.5559 47.0516 37.4523C46.8438 36.0453 46.607 34.6375 46.2742 33.2563C45.9133 31.7617 45.0031 30.7211 43.4438 30.3375C42.4938 30.1039 41.55 30.1133 40.5898 30.2648C38.2445 30.6344 36.0977 31.4984 34.0977 32.7641C33.6953 33.0187 33.4742 33.2242 33.5438 33.8016C33.6906 35.0242 33.7227 36.2664 33.7172 37.5008C33.7094 39.2477 33.6352 40.9945 33.5687 42.7406C33.5469 43.3094 33.4648 43.875 33.4039 44.4414C33.3102 45.3086 33.1297 46.175 33.1352 47.0406C33.1406 47.9328 33.232 48.8461 33.4484 49.7102C34.1359 52.45 35.5922 54.6922 37.9789 56.2742C39.4469 57.2469 41.0711 57.7375 42.8539 57.8305C42.975 57.4211 43.0828 57.0344 43.2023 56.6516ZM40.4008 33.1461C40.0867 32.4867 40.2664 31.9406 40.9945 31.6875C41.1719 31.625 41.3547 31.5586 41.5391 31.5406C41.7922 31.5156 42.05 31.5344 42.3063 31.5344C43.2297 31.5391 44.118 31.668 44.8805 32.2555C45.3695 32.632 45.5008 33.132 45.1844 33.6453C44.7352 34.3734 44.05 34.7391 43.2086 34.8094C41.8828 34.9195 40.9523 34.3016 40.4008 33.1461ZM77.1508 32.9055C77.257 32.0273 77.3422 31.1469 77.4508 30.2687C77.4945 29.9156 77.3086 29.8203 77.0125 29.8117C76.0812 29.7859 75.15 29.7531 74.2188 29.7359C73.1688 29.7172 72.1469 29.8859 71.175 30.2852C70.0969 30.7289 69.2758 31.4398 68.9406 32.6133C68.6954 33.4786 68.6177 34.3828 68.7117 35.2773C68.8422 36.6605 69.1556 38.0203 69.6437 39.3211C70.2953 41.0563 70.9773 42.7906 71.7922 44.4531C72.8961 46.7039 74.1453 48.8828 75.318 51.0992C75.6312 51.6906 75.8945 52.3078 76.2211 52.9984C76.8795 51.6255 77.2392 50.1285 77.2766 48.6062C77.3086 47.3484 77.2078 46.0852 77.1344 44.8266C77.0883 44.0562 76.9797 43.2906 76.9047 42.5219C76.8 41.4508 76.6414 40.3805 76.6172 39.307C76.593 38.2156 76.6703 37.118 76.7641 36.0281C76.8523 34.9828 77.025 33.9461 77.1508 32.9055V32.9055ZM75.05 32.0602C74.7039 33.0156 73.9641 33.5547 73.0047 33.7133C72.1102 33.8602 71.3266 33.5297 70.7438 32.8164C70.3289 32.3086 70.4875 31.707 71.1094 31.3641C71.8234 30.9687 72.6086 30.8688 73.5344 30.8086C73.7859 30.8547 74.1648 30.893 74.525 30.9961C75.0477 31.1437 75.2406 31.5367 75.05 32.0602ZM47.3766 61.482C46.8648 61.0641 46.1883 61.0398 45.7016 61.4984C45.0977 62.0688 44.5664 62.7211 44.0352 63.3641C43.4219 64.107 42.8469 64.8797 42.0555 65.4555C40.9039 66.2922 39.5617 66.6391 38.2125 66.9672C37.1398 67.2281 36.0625 67.4703 34.9867 67.7211L34.9734 67.8602C35.293 68.0078 35.6023 68.1922 35.9352 68.2977C37.5758 68.8172 39.2445 69.0758 40.9781 68.9289C42.2297 68.8227 43.4219 68.55 44.5516 68.0141C46.1063 67.2773 47.3023 66.1102 48.3195 64.7523C48.4898 64.5258 48.5672 64.1906 48.5875 63.8984C48.657 62.8664 48.1328 62.0992 47.3766 61.482V61.482ZM87.807 61.893C86.4867 62.0344 85.1648 62.1844 83.8406 62.2602C83.2016 62.2969 82.5531 62.175 81.9078 62.1227C80.8258 62.0352 79.7695 61.7945 78.8547 61.2164C78.325 60.8828 77.8852 60.8453 77.3227 61.0344C76.5195 61.3047 75.8641 61.7156 75.6703 62.5859C75.5383 63.1742 75.4906 63.7836 75.4375 64.3859C75.4273 64.4922 75.5602 64.6875 75.6617 64.7141C76.2813 64.8773 76.9039 65.0703 77.5375 65.1273C78.3156 65.1977 79.1078 65.175 79.8914 65.1359C80.7375 65.0938 81.5891 65.0391 82.4227 64.8984C84.3875 64.5687 86.2883 64.0312 87.9766 62.9172C88.5852 62.5148 89.1883 62.1039 89.793 61.6969L89.743 61.6109C89.0977 61.707 88.4555 61.8242 87.807 61.893V61.893Z" fill="#336791"/>
</svg>
