<svg width="100" height="100" viewBox="0 0 100 100" fill="none" xmlns="http://www.w3.org/2000/svg">
<g clip-path="url(#clip0_3_12965)">
<path d="M17.7083 8.06015e-06H82.2917C84.6178 -0.00224053 86.9215 0.466009 89.0709 1.37796C91.2204 2.28991 93.1734 3.62765 94.8182 5.31463C96.463 7.00162 97.7673 9.00472 98.6565 11.2093C99.5456 13.4139 100.002 15.7766 100 18.1624V81.8376C100.002 84.2234 99.5456 86.5861 98.6565 88.7907C97.7673 90.9953 96.463 92.9984 94.8182 94.6854C93.1734 96.3723 91.2204 97.7101 89.0709 98.622C86.9215 99.534 84.6178 100.002 82.2917 100H17.7083C15.3822 100.002 13.0785 99.534 10.9291 98.622C8.7796 97.7101 6.82658 96.3723 5.18177 94.6854C3.53696 92.9984 2.23266 90.9953 1.34351 88.7907C0.454359 86.5861 -0.00218452 84.2234 7.85865e-06 81.8376V18.1624C-0.00218452 15.7766 0.454359 13.4139 1.34351 11.2093C2.23266 9.00472 3.53696 7.00162 5.18177 5.31463C6.82658 3.62765 8.7796 2.28991 10.9291 1.37796C13.0785 0.466009 15.3822 -0.00224053 17.7083 8.06015e-06V8.06015e-06Z" fill="#000B1D"/>
<g clip-path="url(#clip1_3_12965)">
<path d="M50 56.6122C53.8396 56.6122 56.9522 53.5399 56.9522 49.75C56.9522 45.9601 53.8396 42.8878 50 42.8878C46.1604 42.8878 43.0479 45.9601 43.0479 49.75C43.0479 53.5399 46.1604 56.6122 50 56.6122Z" fill="#61DAFB"/>
<path fill-rule="evenodd" clip-rule="evenodd" d="M16.7161 45.4681C15.0293 46.9711 14.3207 48.4208 14.3207 49.75C14.3207 51.0792 15.0293 52.5288 16.7161 54.0318C18.4028 55.5347 20.9346 56.9617 24.2015 58.1929C30.7241 60.6511 39.8448 62.2052 50 62.2052C60.1552 62.2052 69.2759 60.6511 75.7985 58.1929C79.0655 56.9617 81.5973 55.5347 83.2839 54.0318C84.9707 52.5288 85.6794 51.0792 85.6794 49.75C85.6794 48.4208 84.9707 46.9711 83.2839 45.4681C81.5973 43.9653 79.0655 42.5383 75.7985 41.3071C69.2759 38.8489 60.1552 37.2948 50 37.2948C39.8448 37.2948 30.7241 38.8489 24.2015 41.3071C20.9346 42.5383 18.4028 43.9653 16.7161 45.4681ZM23.0422 38.3102C30.0211 35.68 39.5526 34.0868 50 34.0868C60.4475 34.0868 69.9789 35.68 76.9578 38.3102C80.4417 39.6232 83.3729 41.2257 85.4617 43.0869C87.5503 44.9479 88.9294 47.1968 88.9294 49.75C88.9294 52.3031 87.5503 54.5521 85.4617 56.4131C83.3729 58.2743 80.4417 59.8768 76.9578 61.1898C69.9789 63.82 60.4475 65.4132 50 65.4132C39.5526 65.4132 30.0211 63.82 23.0422 61.1898C19.5584 59.8768 16.6271 58.2743 14.5384 56.4131C12.4498 54.5521 11.0707 52.3031 11.0707 49.75C11.0707 47.1968 12.4498 44.9479 14.5384 43.0869C16.6271 41.2257 19.5584 39.6232 23.0422 38.3102Z" fill="#61DAFB"/>
<path fill-rule="evenodd" clip-rule="evenodd" d="M37.1149 19.1573C34.9527 18.4669 33.3265 18.586 32.1603 19.2506C30.9941 19.9152 30.0766 21.2457 29.6012 23.4392C29.126 25.6324 29.1399 28.5101 29.6931 31.9183C30.7977 38.7231 33.9945 47.2967 39.0721 55.9776C44.1497 64.6585 50.0735 71.678 55.4917 76.0245C58.2054 78.2015 60.7233 79.6523 62.8851 80.3427C65.0473 81.0331 66.6735 80.914 67.8397 80.2494C69.0059 79.5848 69.9234 78.2543 70.3988 76.0608C70.874 73.8676 70.8601 70.9899 70.3069 67.5816C69.2023 60.7768 66.0055 52.2032 60.9279 43.5224C55.8503 34.8415 49.9265 27.822 44.5083 23.4755C41.7946 21.2984 39.2767 19.8476 37.1149 19.1573ZM46.5581 20.986C52.3552 25.6366 58.5188 32.9877 63.7425 41.9184C68.9662 50.8491 72.3342 59.7934 73.5159 67.0742C74.1059 70.7087 74.1654 74.0157 73.5769 76.7318C72.9883 79.4477 71.7047 81.751 69.4647 83.0276C67.2246 84.3042 64.5619 84.2498 61.8848 83.3949C59.2075 82.54 56.3358 80.8356 53.4419 78.514C47.6448 73.8634 41.4812 66.5123 36.2575 57.5816C31.0338 48.6509 27.6658 39.7066 26.4841 32.4258C25.8941 28.7913 25.8346 25.4843 26.4231 22.7682C27.0116 20.0523 28.2953 17.749 30.5353 16.4724C32.7754 15.1958 35.4381 15.2502 38.1152 16.1051C40.7925 16.96 43.6642 18.6644 46.5581 20.986Z" fill="#61DAFB"/>
<path fill-rule="evenodd" clip-rule="evenodd" d="M70.3987 23.4392C69.9234 21.2457 69.0059 19.9152 67.8396 19.2506C66.6734 18.586 65.0472 18.4669 62.8851 19.1573C60.7232 19.8477 58.2053 21.2985 55.4916 23.4755C50.0735 27.822 44.1496 34.8415 39.0721 43.5224C33.9945 52.2033 30.7976 60.7769 29.6931 67.5817C29.1399 70.9899 29.126 73.8676 29.6012 76.0608C30.0765 78.2543 30.9941 79.5848 32.1603 80.2494C33.3265 80.914 34.9527 81.0331 37.1148 80.3427C39.2767 79.6524 41.7946 78.2016 44.5083 76.0245C49.9264 71.678 55.8503 64.6585 60.9279 55.9776C66.0055 47.2968 69.2023 38.7232 70.3068 31.9183C70.86 28.5101 70.874 25.6324 70.3987 23.4392ZM73.5159 32.4258C72.3341 39.7066 68.9662 48.6509 63.7425 57.5816C58.5188 66.5123 52.3552 73.8634 46.5581 78.514C43.6642 80.8356 40.7925 82.54 38.1152 83.3949C35.4381 84.2498 32.7754 84.3042 30.5353 83.0276C28.2952 81.751 27.0116 79.4477 26.4231 76.7318C25.8345 74.0157 25.8941 70.7087 26.484 67.0742C27.6658 59.7934 31.0338 50.8491 36.2575 41.9184C41.4812 32.9877 47.6447 25.6366 53.4418 20.986C56.3358 18.6644 59.2074 16.96 61.8848 16.1051C64.5619 15.2502 67.2246 15.1958 69.4646 16.4724C71.7047 17.749 72.9883 20.0523 73.5768 22.7682C74.1654 25.4843 74.1058 28.7913 73.5159 32.4258Z" fill="#61DAFB"/>
</g>
</g>
<defs>
<clipPath id="clip0_3_12965">
<rect width="100" height="100" fill="white"/>
</clipPath>
<clipPath id="clip1_3_12965">
<rect width="78" height="68.5" fill="white" transform="translate(11 15.5)"/>
</clipPath>
</defs>
</svg>
