<svg width="100" height="100" viewBox="0 0 100 100" fill="none" xmlns="http://www.w3.org/2000/svg">
<path d="M50.0029 20.0016C36.6693 20.0016 28.3389 26.6657 25.0029 39.9992C30.0014 33.3344 35.8365 30.8352 42.5014 32.5016C46.3068 33.45 49.0264 36.2094 52.0381 39.2672C56.9397 44.2414 62.6131 50 75.0029 50C88.3357 50 96.667 43.3352 100.003 29.9985C95.0037 36.6672 89.1693 39.1664 82.5037 37.5C78.699 36.5508 75.9826 33.7922 72.967 30.7344C68.0686 25.7602 62.3967 20.0016 50.0029 20.0016V20.0016ZM25.0029 50C11.6701 50 3.33887 56.6649 0.00292969 70.0016C5.00137 63.3328 10.8357 60.8336 17.5014 62.5C21.3068 63.4492 24.0264 66.2078 27.0381 69.2657C31.9396 74.2399 37.6131 79.9985 50.0029 79.9985C63.3357 79.9985 71.667 73.3344 75.0029 60.0008C70.0037 66.6657 64.1693 69.1649 57.5037 67.4985C53.699 66.55 50.9826 63.7907 47.967 60.7328C43.0686 55.7586 37.3967 50 25.0029 50Z" fill="#38B2AC"/>
</svg>
