<svg width="100" height="100" viewBox="0 0 100 100" fill="none" xmlns="http://www.w3.org/2000/svg">
<path d="M17.7083 8.06015e-06H82.2917C84.6178 -0.00224053 86.9215 0.466009 89.0709 1.37796C91.2204 2.28991 93.1734 3.62765 94.8182 5.31463C96.463 7.00162 97.7673 9.00472 98.6565 11.2093C99.5456 13.4139 100.002 15.7766 100 18.1624V81.8376C100.002 84.2234 99.5456 86.5861 98.6565 88.7907C97.7673 90.9953 96.463 92.9984 94.8182 94.6854C93.1734 96.3723 91.2204 97.7101 89.0709 98.622C86.9215 99.534 84.6178 100.002 82.2917 100H17.7083C15.3822 100.002 13.0785 99.534 10.9291 98.622C8.7796 97.7101 6.82658 96.3723 5.18177 94.6854C3.53696 92.9984 2.23266 90.9953 1.34351 88.7907C0.454359 86.5861 -0.00218452 84.2234 7.85865e-06 81.8376V18.1624C-0.00218452 15.7766 0.454359 13.4139 1.34351 11.2093C2.23266 9.00472 3.53696 7.00162 5.18177 5.31463C6.82658 3.62765 8.7796 2.28991 10.9291 1.37796C13.0785 0.466009 15.3822 -0.00224053 17.7083 8.06015e-06V8.06015e-06Z" fill="#000B1D"/>
<path d="M82.2245 22.8092L67.9337 15.9284C66.2796 15.132 64.3027 15.468 63.0046 16.7661L16.2219 59.421C14.9635 60.5682 14.965 62.5493 16.225 63.6948L20.0463 67.1688C21.0765 68.1052 22.6278 68.1742 23.7369 67.3328L80.0741 24.5942C81.9642 23.1604 84.6788 24.5084 84.6788 26.8808V26.7149C84.6788 25.0496 83.7249 23.5316 82.2245 22.8092Z" fill="#0065A9"/>
<g filter="url(#filter0_d_3_12916)">
<path d="M82.2245 77.1908L67.9337 84.0715C66.2796 84.8681 64.3027 84.532 63.0046 83.2338L16.2219 40.5791C14.9635 39.4317 14.965 37.4506 16.225 36.3052L20.0463 32.8312C21.0765 31.8947 22.6278 31.8258 23.7369 32.6672L80.0741 75.4057C81.9642 76.8396 84.6788 75.4915 84.6788 73.1192V73.2851C84.6788 74.9503 83.7249 76.4684 82.2245 77.1908Z" fill="#007ACC"/>
</g>
<g filter="url(#filter1_d_3_12916)">
<path d="M67.9343 84.0729C66.2797 84.8689 64.3028 84.5322 63.0045 83.2338C64.6042 84.8335 67.3394 83.7005 67.3394 81.4383V18.5617C67.3394 16.2994 64.6042 15.1665 63.0045 16.7662C64.3028 15.4679 66.2797 15.1314 67.9343 15.9272L82.2226 22.7985C83.724 23.5205 84.6788 25.0391 84.6788 26.705V73.2952C84.6788 74.9612 83.724 76.4798 82.2225 77.2018L67.9343 84.0729Z" fill="#1F9CF0"/>
</g>
<g style="mix-blend-mode:overlay" opacity="0.25">
<path style="mix-blend-mode:overlay" fill-rule="evenodd" clip-rule="evenodd" d="M64.4618 84.2052C65.5542 84.6307 66.7999 84.6035 67.9024 84.073L82.1819 77.2019C83.6824 76.4799 84.6367 74.9613 84.6367 73.2953V26.7051C84.6367 25.0391 83.6825 23.5205 82.182 22.7985L67.9024 15.9272C66.4555 15.231 64.7619 15.4015 63.4919 16.3248C63.3106 16.4567 63.1377 16.6039 62.9756 16.7662L35.639 41.7059L23.7318 32.6673C22.6234 31.8259 21.0729 31.8949 20.0435 32.8313L16.2244 36.3053C14.9652 37.4508 14.9637 39.4318 16.2213 40.5791L26.5476 50.0001L16.2213 59.421C14.9637 60.5683 14.9652 62.5494 16.2244 63.6949L20.0435 67.1688C21.0729 68.1053 22.6234 68.1742 23.7318 67.3329L35.639 58.2943L62.9756 83.2339C63.408 83.6666 63.9158 83.9925 64.4618 84.2052ZM67.3078 34.2551L46.5656 50.0001L67.3078 65.7451V34.2551Z" fill="url(#paint0_linear_3_12916)"/>
</g>
<defs>
<filter id="filter0_d_3_12916" x="6.94571" y="23.7463" width="86.0665" height="69.0865" filterUnits="userSpaceOnUse" color-interpolation-filters="sRGB">
<feFlood flood-opacity="0" result="BackgroundImageFix"/>
<feColorMatrix in="SourceAlpha" type="matrix" values="0 0 0 0 0 0 0 0 0 0 0 0 0 0 0 0 0 0 127 0" result="hardAlpha"/>
<feOffset/>
<feGaussianBlur stdDeviation="4.16667"/>
<feColorMatrix type="matrix" values="0 0 0 0 0 0 0 0 0 0 0 0 0 0 0 0 0 0 0.25 0"/>
<feBlend mode="overlay" in2="BackgroundImageFix" result="effect1_dropShadow_3_12916"/>
<feBlend mode="normal" in="SourceGraphic" in2="effect1_dropShadow_3_12916" result="shape"/>
</filter>
<filter id="filter1_d_3_12916" x="54.6712" y="7.16666" width="38.3409" height="85.6668" filterUnits="userSpaceOnUse" color-interpolation-filters="sRGB">
<feFlood flood-opacity="0" result="BackgroundImageFix"/>
<feColorMatrix in="SourceAlpha" type="matrix" values="0 0 0 0 0 0 0 0 0 0 0 0 0 0 0 0 0 0 127 0" result="hardAlpha"/>
<feOffset/>
<feGaussianBlur stdDeviation="4.16667"/>
<feColorMatrix type="matrix" values="0 0 0 0 0 0 0 0 0 0 0 0 0 0 0 0 0 0 0.25 0"/>
<feBlend mode="overlay" in2="BackgroundImageFix" result="effect1_dropShadow_3_12916"/>
<feBlend mode="normal" in="SourceGraphic" in2="effect1_dropShadow_3_12916" result="shape"/>
</filter>
<linearGradient id="paint0_linear_3_12916" x1="49.9578" y1="15.5001" x2="49.9578" y2="84.5001" gradientUnits="userSpaceOnUse">
<stop stop-color="white"/>
<stop offset="1" stop-color="white" stop-opacity="0"/>
</linearGradient>
</defs>
</svg>
